<?xml version="1.0" encoding="utf-8"?>
<!-- Generator: Adobe Illustrator 19.0.0, SVG Export Plug-In . SVG Version: 6.00 Build 0)  -->
<svg version="1.1" id="Layer_2_copy" xmlns="http://www.w3.org/2000/svg" xmlns:xlink="http://www.w3.org/1999/xlink" x="0px"
	 y="0px" viewBox="0 0 460 280" style="enable-background:new 0 0 460 280;" xml:space="preserve">
<style type="text/css">
	.st0{fill:#D6B425;stroke:#FCFCFC;stroke-width:1.8531;stroke-miterlimit:10;}
	.st1{fill-rule:evenodd;clip-rule:evenodd;fill:#08365B;}
	.st2{fill-rule:evenodd;clip-rule:evenodd;fill:#FFFFFF;}
	.st3{fill-rule:evenodd;clip-rule:evenodd;fill:#08365B;stroke:#FFFFFF;stroke-miterlimit:10;}
</style>
<path id="XMLID_5_" class="st0" d="M336.2,51.5l13.6-1.4c4.2,10.1,28.5,9.7,31.5,0l15,1.6c3.2,0.2,5.2,0.8,8.2,3.1l23.2,16
	l-9.6,21.6l-17.3-5.6v61.5c-11.9,5.8-55.8,5.8-70,0V86.9l-16,5.2l-9.6-21.6l23.3-16.4C330.8,52.7,332.8,51.8,336.2,51.5z"/>
<path id="XMLID_4_" class="st0" d="M383.6,130.4l11.2-1.2c3.5,8.3,23.5,8,25.9,0l12.4,1.3c2.6,0.2,4.2,0.7,6.8,2.6l19.1,13.2
	l-7.9,17.7l-14.3-4.6V210c-9.8,4.7-46,4.7-57.7,0v-50.5l-13.2,4.3l-7.9-17.7l19.2-13.5C379.2,131.4,380.9,130.7,383.6,130.4z"/>
<path id="XMLID_6_" class="st0" d="M171.9,7.7L188.1,6c5,12.1,34.1,11.6,37.6,0l18,1.9c3.8,0.3,6.2,1,9.9,3.7l27.7,19.2l-11.5,25.8
	l-20.7-6.8v73.7c-14.3,6.9-66.8,6.9-83.8,0V50.1l-19.2,6.2l-11.5-25.8l27.9-19.7C165.5,9.1,167.8,8.1,171.9,7.7z"/>
<g id="XMLID_13_">
	<path id="XMLID_12_" class="st1" d="M204.8,101c21.8,0,43.6,0,65.4,0v172.7l-26-0.5l-4.3-132.6c-1.1-7.4-4-6.6-4.9,0.3l-4.2,132.2
		l-26,0.5V101z"/>
	<rect id="XMLID_11_" x="204.2" y="112.6" class="st2" width="66.3" height="4.1"/>
	<rect id="XMLID_10_" x="230.9" y="100.4" class="st2" width="1.3" height="12.8"/>
	<path id="XMLID_9_" class="st2" d="M237.3,110.1c1.6,0,2.9-1.3,2.9-2.9c0-1.6-1.3-2.9-2.9-2.9c-1.6,0-2.9,1.3-2.9,2.9
		C234.4,108.8,235.7,110.1,237.3,110.1z"/>
	<rect id="XMLID_8_" x="254.4" y="100.3" class="st2" width="5.1" height="13.2"/>
	<rect id="XMLID_7_" x="214.8" y="100.3" class="st2" width="5.1" height="13.2"/>
</g>
<g id="XMLID_14_">
	<path id="XMLID_20_" class="st1" d="M3.8,53.5c19.5,0,39,0,58.5,0v154.6l-23.3-0.4L35.2,88.9c-0.9-6.6-3.6-5.9-4.4,0.3L27,207.6
		l-23.3,0.4V53.5z"/>
	<rect id="XMLID_19_" x="3.3" y="63.9" class="st2" width="59.4" height="3.6"/>
	<rect id="XMLID_18_" x="27.2" y="53" class="st2" width="1.2" height="11.5"/>
	<path id="XMLID_17_" class="st2" d="M32.9,61.6c1.4,0,2.6-1.1,2.6-2.6c0-1.4-1.1-2.6-2.6-2.6c-1.4,0-2.6,1.1-2.6,2.6
		C30.3,60.4,31.5,61.6,32.9,61.6z"/>
	<rect id="XMLID_16_" x="48.3" y="52.8" class="st2" width="4.6" height="11.8"/>
	<rect id="XMLID_15_" x="12.8" y="52.8" class="st2" width="4.6" height="11.8"/>
</g>
<g id="XMLID_21_">
	<path id="XMLID_27_" class="st3" d="M56,94.2c18.1,0,36.3,0,54.4,0v143.6l-21.6-0.4l-3.6-110.3c-0.9-6.2-3.3-5.5-4.1,0.3l-3.5,110
		L56,237.8V94.2z"/>
	<rect id="XMLID_26_" x="55.6" y="103.8" class="st2" width="55.2" height="3.4"/>
	<rect id="XMLID_25_" x="77.8" y="93.7" class="st2" width="1.1" height="10.7"/>
	<path id="XMLID_24_" class="st2" d="M83.1,101.7c1.3,0,2.4-1.1,2.4-2.4c0-1.3-1.1-2.4-2.4-2.4c-1.3,0-2.4,1.1-2.4,2.4
		C80.7,100.6,81.8,101.7,83.1,101.7z"/>
	<rect id="XMLID_23_" x="97.3" y="93.5" class="st2" width="4.2" height="11"/>
	<rect id="XMLID_22_" x="64.4" y="93.5" class="st2" width="4.2" height="11"/>
</g>
</svg>
