<svg id="Keep" xmlns="http://www.w3.org/2000/svg" viewBox="0 0 174 174"><defs><style>.cls-1,.cls-5{fill:none;}.cls-1,.cls-3,.cls-5{stroke:#666;stroke-miterlimit:10;stroke-width:2px;}.cls-1,.cls-2{fill-rule:evenodd;}.cls-2,.cls-4{fill:#666;}.cls-3{fill:#edeff0;}</style></defs><title>how-img-keep</title><g id="Layer_1_copy" data-name="Layer 1 copy"><path class="cls-1" d="M60.78,28.8h0l5.44-1.62a17.61,17.61,0,0,0,10.34,4.18A16.29,16.29,0,0,0,87.1,27.18l5.44,1.62" transform="translate(-0.5 0.8)"/><path class="cls-1" d="M61.55,28.53L57,29.6c-3.77-.55-5.85,6.56-6.89,10l9.32,4.68c0,4.08-.42,8.48,3.22,12.84,1.75,5.36,2.61,9.4,2,14.72-9.53,21.4-15.43,44.16-24,65.54a42.1,42.1,0,0,0,13.16,2.66L53.5,142c16.67,2.33,29.16,2.64,46.45,0l-0.23-1.9a42.11,42.11,0,0,0,13.16-2.66c-8.61-21.38-14.42-44.13-24-65.54a43.68,43.68,0,0,1,1.9-14.72c3.71-4.42,3.53-9.29,3.22-12.84l9.32-4.68c-1-3.48-3.12-10.58-6.89-10l-4.59-1.06" transform="translate(-0.5 0.8)"/><path class="cls-2" d="M65,71.79c7.51,2.56,15.56,2.09,23.57.37C86.21,76.38,68.79,78,65,71.79Z" transform="translate(-0.5 0.8)"/></g><circle class="cls-3" cx="116" cy="100.14" r="25.5"/><g id="Layer_9" data-name="Layer 9"><rect class="cls-4" x="107.34" y="97.43" width="3.55" height="14.53" rx="1.41" ry="1.41" transform="translate(-42.02 118.77) rotate(-48.85)"/><rect class="cls-4" x="118.81" y="86.99" width="3.55" height="25.85" rx="1.41" ry="1.41" transform="translate(95.03 -53.87) rotate(41.15)"/></g><circle class="cls-5" cx="87" cy="87" r="86"/></svg>