<svg id="Layer_1" data-name="Layer 1" xmlns="http://www.w3.org/2000/svg" viewBox="0 0 80 80"><defs><style>.cls-1{fill:#666;}</style></defs><title>icon-facebook-gray</title><g id="circle"><path id="_Compound_Path_" data-name="&lt;Compound Path&gt;" class="cls-1" d="M40,0A40,40,0,1,0,80,40,40,40,0,0,0,40,0Zm0,76A36,36,0,1,1,76,40,36,36,0,0,1,40,76Z"/></g><g id="facebook"><g id="_Group_" data-name="&lt;Group&gt;"><path id="_Path_" data-name="&lt;Path&gt;" class="cls-1" d="M33,23.2v7.6H27.6V40H33V67.5H44V40h7.4s0.7-4.4,1-9.3H44V24.4a2.67,2.67,0,0,1,2.4-2.2h6V12.6H44.2C32.7,12.5,33,21.8,33,23.2h0Z"/></g></g></svg>