<?xml version="1.0" encoding="utf-8"?>
<!-- Generator: Adobe Illustrator 19.0.0, SVG Export Plug-In . SVG Version: 6.00 Build 0)  -->
<svg version="1.1" xmlns="http://www.w3.org/2000/svg" xmlns:xlink="http://www.w3.org/1999/xlink" x="0px" y="0px"
	 viewBox="0 0 80 80" style="enable-background:new 0 0 80 80;" xml:space="preserve">
<style type="text/css">
	.st0{fill:#F0F0F0;}
	.st1{display:none;}
	.st2{display:inline;}
</style>
<g id="circle">
	<path id="XMLID_23_" class="st0" d="M40,0C17.9,0,0,17.9,0,40c0,22.1,17.9,40,40,40s40-17.9,40-40C80,17.9,62.1,0,40,0z M40,76
		C20.1,76,4,59.9,4,40S20.1,4,40,4s36,16.1,36,36S59.9,76,40,76z"/>
</g>
<g id="twitter" class="st1">
	<g id="XMLID_1_" class="st2">
		<g id="XMLID_20_">
			<path id="Twitter__x28_alt_x29__1_" class="st0" d="M61.3,37.9c3.1-0.3,5.2-1.7,6-3.6c-1.1,0.7-4.6,1.4-6.5,0.7
				c-0.1-0.4-0.2-0.9-0.3-1.3c-1.5-5.3-6.4-9.7-11.7-9.1c0.4-0.2,0.9-0.3,1.3-0.5c0.6-0.2,3.9-0.8,3.4-1.9c-0.4-1-4.6,0.8-5.3,1
				c1-0.4,2.7-1,2.9-2.2c-1.6,0.2-3.1,1-4.3,2c0.4-0.5,0.8-1,0.8-1.6c-4.2,2.7-6.6,8.1-8.6,13.3c-1.6-1.5-2.9-2.7-4.2-3.3
				c-3.5-1.9-7.6-3.8-14.1-6.2c-0.2,2.2,1.1,5,4.7,6.9c-0.8-0.1-2.2,0.1-3.4,0.4c0.5,2.5,2,4.5,6.2,5.5c-1.9,0.1-2.9,0.6-3.8,1.5
				c0.9,1.7,3,3.7,6.8,3.3c-4.2,1.8-1.7,5.2,1.7,4.7C27,53.5,17.8,53.1,12.5,48c13.8,18.9,44,11.2,48.4-7c3.4,0,5.3-1.2,6.6-2.5
				C65.6,38.9,62.8,38.5,61.3,37.9z"/>
		</g>
		<g id="XMLID_19_">
		</g>
		<g id="XMLID_18_">
		</g>
		<g id="XMLID_17_">
		</g>
		<g id="XMLID_16_">
		</g>
		<g id="XMLID_15_">
		</g>
		<g id="XMLID_14_">
		</g>
		<g id="XMLID_13_">
		</g>
		<g id="XMLID_12_">
		</g>
		<g id="XMLID_11_">
		</g>
		<g id="XMLID_10_">
		</g>
		<g id="XMLID_9_">
		</g>
		<g id="XMLID_8_">
		</g>
		<g id="XMLID_7_">
		</g>
		<g id="XMLID_3_">
		</g>
		<g id="XMLID_2_">
		</g>
	</g>
</g>
<g id="facebook">
	<g id="XMLID_4_">
		<path id="XMLID_5_" class="st0" d="M33,23.2v7.6h-5.4V40H33v27.5h11V40h7.4c0,0,0.7-4.4,1-9.3H44v-6.3c0-0.9,1.2-2.2,2.4-2.2h6
			v-9.6h-8.2C32.7,12.5,33,21.8,33,23.2L33,23.2z M33,23.2"/>
	</g>
</g>
</svg>
