<?xml version="1.0" encoding="utf-8"?>
<!-- Generator: Adobe Illustrator 19.0.0, SVG Export Plug-In . SVG Version: 6.00 Build 0)  -->
<svg version="1.1" xmlns="http://www.w3.org/2000/svg" xmlns:xlink="http://www.w3.org/1999/xlink" x="0px" y="0px"
	 viewBox="0 0 80 80" style="enable-background:new 0 0 80 80;" xml:space="preserve">
<style type="text/css">
	.st0{fill:#F0F0F0;}
	.st1{display:none;}
	.st2{display:inline;}
	.st3{clip-path:url(#XMLID_55_);fill:#F0F0F0;}
	.st4{clip-path:url(#XMLID_56_);fill:#F0F0F0;}
</style>
<g id="circle">
	<path id="XMLID_23_" class="st0" d="M40,0C17.9,0,0,17.9,0,40c0,22.1,17.9,40,40,40s40-17.9,40-40C80,17.9,62.1,0,40,0z M40,76
		C20.1,76,4,59.9,4,40S20.1,4,40,4s36,16.1,36,36S59.9,76,40,76z"/>
</g>
<g id="twitter" class="st1">
	<g id="XMLID_1_" class="st2">
		<g id="XMLID_20_">
			<path id="Twitter__x28_alt_x29__1_" class="st0" d="M61.3,37.9c3.1-0.3,5.2-1.7,6-3.6c-1.1,0.7-4.6,1.4-6.5,0.7
				c-0.1-0.4-0.2-0.9-0.3-1.3c-1.5-5.3-6.4-9.7-11.7-9.1c0.4-0.2,0.9-0.3,1.3-0.5c0.6-0.2,3.9-0.8,3.4-1.9c-0.4-1-4.6,0.8-5.3,1
				c1-0.4,2.7-1,2.9-2.2c-1.6,0.2-3.1,1-4.3,2c0.4-0.5,0.8-1,0.8-1.6c-4.2,2.7-6.6,8.1-8.6,13.3c-1.6-1.5-2.9-2.7-4.2-3.3
				c-3.5-1.9-7.6-3.8-14.1-6.2c-0.2,2.2,1.1,5,4.7,6.9c-0.8-0.1-2.2,0.1-3.4,0.4c0.5,2.5,2,4.5,6.2,5.5c-1.9,0.1-2.9,0.6-3.8,1.5
				c0.9,1.7,3,3.7,6.8,3.3c-4.2,1.8-1.7,5.2,1.7,4.7C27,53.5,17.8,53.1,12.5,48c13.8,18.9,44,11.2,48.4-7c3.4,0,5.3-1.2,6.6-2.5
				C65.6,38.9,62.8,38.5,61.3,37.9z"/>
		</g>
		<g id="XMLID_19_">
		</g>
		<g id="XMLID_18_">
		</g>
		<g id="XMLID_17_">
		</g>
		<g id="XMLID_16_">
		</g>
		<g id="XMLID_15_">
		</g>
		<g id="XMLID_14_">
		</g>
		<g id="XMLID_13_">
		</g>
		<g id="XMLID_12_">
		</g>
		<g id="XMLID_11_">
		</g>
		<g id="XMLID_10_">
		</g>
		<g id="XMLID_9_">
		</g>
		<g id="XMLID_8_">
		</g>
		<g id="XMLID_7_">
		</g>
		<g id="XMLID_3_">
		</g>
		<g id="XMLID_2_">
		</g>
	</g>
</g>
<g id="facebook" class="st1">
	<g id="XMLID_4_" class="st2">
		<path id="XMLID_5_" class="st0" d="M33,23.2v7.6h-5.4V40H33v27.5h11V40h7.4c0,0,0.7-4.4,1-9.3H44v-6.3c0-0.9,1.2-2.2,2.4-2.2h6
			v-9.6h-8.2C32.7,12.5,33,21.8,33,23.2L33,23.2z M33,23.2"/>
	</g>
</g>
<g id="google_x2B_" class="st1">
	<g id="XMLID_25_" class="st2">
		<path id="XMLID_26_" class="st0" d="M58,12.5H43.1c-3.9,0-8.8,0.6-12.9,4c-3.1,2.7-4.6,6.4-4.6,9.7c0,5.6,4.3,11.3,12,11.3
			c0.7,0,1.5-0.1,2.3-0.1c-0.4,0.9-0.7,1.6-0.7,2.8c0,2.2,1.2,3.6,2.2,4.9c-3.2,0.2-9.3,0.6-13.8,3.3c-4.3,2.5-5.6,6.2-5.6,8.8
			c0,5.3,5.1,10.3,15.5,10.3c12.4,0,19-6.9,19-13.6c0-5-2.9-7.4-6.1-10.1l-2.6-2C47,41.1,46,40.2,46,38.6c0-1.6,1.1-2.6,2-3.5
			c3-2.4,6.1-4.9,6.1-10.2c0-5.5-3.5-8.4-5.1-9.7h4.5L58,12.5z M51.7,56.7c0,4.5-3.7,7.8-10.6,7.8c-7.7,0-12.7-3.7-12.7-8.8
			c0-5.1,4.6-6.9,6.2-7.4c3-1,6.9-1.2,7.6-1.2c0.7,0,1.1,0,1.7,0.1C49.3,51,51.7,53,51.7,56.7L51.7,56.7z M45.9,33.4
			c-1.2,1.2-3.1,2-4.9,2c-6.2,0-9-8-9-12.8c0-1.9,0.4-3.8,1.6-5.3c1.2-1.4,3.2-2.4,5.1-2.4c6,0,9.1,8.1,9.1,13.3
			C47.7,29.5,47.6,31.8,45.9,33.4L45.9,33.4z M45.9,33.4"/>
	</g>
</g>
<g id="blog" class="st1">
	<g id="XMLID_37_" class="st2">
		<path id="XMLID_38_" d="M40,76c1.7,1.7,2.8,4.1,2.8,6.7c0,2.6-1.1,5-2.8,6.7l0,0c-1.7,1.7-4.1,2.8-6.8,2.8c-2.6,0-5-1.1-6.8-2.8
			c-1.7-1.7-2.8-4.1-2.8-6.7c0-2.6,1.1-5,2.8-6.7v0c1.7-1.7,4.1-2.8,6.8-2.8C35.9,73.2,38.2,74.3,40,76L40,76z M40,76L40,76L40,76
			L40,76z M26.5,89.5L26.5,89.5L26.5,89.5L26.5,89.5z M23.7,44.8v13.7c9,0,17.5,3.5,23.8,9.9c6.4,6.3,9.9,14.8,9.9,23.9h0v0h13.8
			c0-13.1-5.3-25-13.9-33.6C48.6,50.1,36.8,44.8,23.7,44.8L23.7,44.8z M23.7,20.3v13.7c32.1,0,58.2,26.1,58.2,58.3h13.8
			c0-19.8-8.1-37.8-21.1-50.9C61.5,28.4,43.5,20.3,23.7,20.3L23.7,20.3z M23.7,20.3"/>
	</g>
</g>
<g id="pint">
	<g id="XMLID_31_">
		<g id="XMLID_32_">
			<defs>
				<rect id="XMLID_33_" x="16.7" y="12.5" width="46.7" height="55"/>
			</defs>
			<clipPath id="XMLID_55_">
				<use xlink:href="#XMLID_33_"  style="overflow:visible;"/>
			</clipPath>
			<path id="XMLID_34_" class="st3" d="M28.2,14.9c-6,2.8-10.1,8.2-11.2,15.5c-0.7,4.5-0.4,9.3,1.2,13.5c0.4,0.9,0.8,1.8,1.4,2.6
				c0.3,0.4,0.5,0.8,0.8,1.2c0.5-0.2,1-0.5,1.5-0.8c2-1.4,3.5-3.4,5.3-5.2c-5.8-7.9,0.3-17.8,8-20c7.2-2,16.9,1.5,19.1,10.2
				c0.9,3.6,0.3,7.6-2.2,10.2c-1.3,1.4-3,2.3-4.7,2.6c-1,0.2-2.1,0.2-3.1,0.1c-0.6-0.1-1.1-0.2-1.7-0.3c-1-0.3-1.8-0.2-1.8-1.4V28.8
				c0-1,0.1-0.8-0.6-0.9c-0.5-0.1-1.1-0.1-1.6-0.2c-1.9-0.2-3.9-0.3-5.8,0.1c-0.7,0.1-0.7,0-0.7,0.9v7.5c0,5.3,0.3,10.7,0.2,16
				c-0.1,1.6-0.1,5.4-1.6,6.2c-1.7,0.9-3.3-1-4.9-1.4c0.2,2.7-1.2,7.9,1.4,9.3c2.4,1.2,5.2,1.7,7.7,0.7c5.3-2.1,7.1-9.1,6.4-14.9
				c8.2,2.9,17.1-2,20.6-10.7c2.5-6.2,1.4-14-2.3-19.3C52.6,12.2,38.2,10.3,28.2,14.9L28.2,14.9z M28.2,14.9"/>
		</g>
	</g>
</g>
<g id="insta" class="st1">
	<g id="XMLID_45_" class="st2">
		<g id="XMLID_46_">
			<defs>
				<rect id="XMLID_47_" x="20" y="20" width="40" height="40"/>
			</defs>
			<clipPath id="XMLID_56_">
				<use xlink:href="#XMLID_47_"  style="overflow:visible;"/>
			</clipPath>
			<path id="XMLID_48_" class="st4" d="M55,20H25c-2.8,0-5,2.3-5,5V55c0,2.8,2.3,5,5,5H55c2.8,0,5-2.3,5-5V25C60,22.2,57.8,20,55,20
				L55,20z M40,34.1c3.2,0,5.9,2.6,5.9,5.9c0,3.2-2.6,5.9-5.9,5.9c-3.2,0-5.9-2.6-5.9-5.9C34.2,36.7,36.8,34.1,40,34.1L40,34.1z
				 M55.4,52.8c0,1.4-1.3,2.5-2.7,2.5H27.4c-1.4,0-2.8-1.1-2.8-2.5V40.2c0-1.4,1.4-2.5,2.8-2.5h1.4c0.3,0,0.5,0.1,0.7,0.3
				c0.2,0.2,0.3,0.5,0.2,0.7c-0.1,0.4-0.1,0.8-0.1,1.3c0,5.7,4.6,10.3,10.3,10.3c5.7,0,10.3-4.6,10.3-10.3c0-0.4,0-0.9-0.1-1.3
				c0-0.3,0-0.5,0.2-0.7c0.2-0.2,0.4-0.3,0.7-0.3h1.5c1.4,0,2.7,1.1,2.7,2.5V52.8z M55.4,29.5L55.4,29.5c0,1.4-1.1,2.5-2.5,2.5h-2.4
				c-1.4,0-2.5-1.1-2.5-2.5v-2.4c0-1.4,1.1-2.5,2.5-2.5h2.4c1.4,0,2.5,1.1,2.5,2.5V29.5z M55.4,29.5"/>
		</g>
	</g>
</g>
</svg>
