<?xml version="1.0" encoding="utf-8"?>
<!-- Generator: Adobe Illustrator 19.0.0, SVG Export Plug-In . SVG Version: 6.00 Build 0)  -->
<svg version="1.1" id="Layer_1" xmlns="http://www.w3.org/2000/svg" xmlns:xlink="http://www.w3.org/1999/xlink" x="0px" y="0px"
	 viewBox="0 0 460 280" style="enable-background:new 0 0 460 280;" xml:space="preserve">
<style type="text/css">
	.st0{fill-rule:evenodd;clip-rule:evenodd;fill:#AB0094;}
	.st1{fill-rule:evenodd;clip-rule:evenodd;fill:#FFFFFF;}
	.st2{fill-rule:evenodd;clip-rule:evenodd;}
	.st3{fill-rule:evenodd;clip-rule:evenodd;fill:#4D2B00;}
	.st4{fill-rule:evenodd;clip-rule:evenodd;fill:#704500;}
	.st5{fill:#E1E1E1;}
	.st6{font-family:'MyriadPro-Regular';}
	.st7{font-size:74.3051px;}
</style>
<g id="XMLID_2_">
	<path id="XMLID_5_" class="st0" d="M91.1,11.1l12.4-3.7c7,5.5,14.5,9.1,23.5,9.5c9.2,0,17.1-3.8,24-9.5l12.4,3.7l-9.8,32.7
		c-8.8-1-17.5-1.6-26.3-1.6c-8.8,0-17.6,0.6-26.3,1.6L91.1,11.1L91.1,11.1z M92.2,13.8l9.3,31.1c17.3-2.1,34.1-2.1,51.4,0l9.3-31.1
		l-11.1-3.3c-15.3,13.3-33.3,11.8-47.9,0L92.2,13.8z"/>
	<path id="XMLID_4_" class="st0" d="M101.7,42l-8.9-31.5l-10.4,2.4c-8.6-1.2-13.3,14.9-15.7,22.8l21.2,10.6c0,9.3-1,19.3,7.3,29.2
		c4,12.2,5.9,21.4,4.5,33.5C78.1,157.6,64.7,209.4,45.1,258c8.2,3.4,19,5.4,29.9,6l-0.5,4.3c37.9,5.3,66.3,6,105.6,0l-0.5-4.3
		c10.9-0.6,21.7-2.7,29.9-6c-19.6-48.6-32.8-100.3-54.4-148.9c-0.4-12.4,0.9-21.5,4.3-33.5c8.4-10.1,8-21.1,7.3-29.2l21.2-10.6
		c-2.4-7.9-7.1-24.1-15.7-22.8l-10.4-2.4L152.9,42C135.3,39.8,119.4,39.8,101.7,42z"/>
	<path id="XMLID_3_" class="st1" d="M100.7,108.8c17.1,5.8,35.4,4.7,53.6,0.8C148.9,119.2,109.3,122.8,100.7,108.8z"/>
</g>
<path id="XMLID_8_" class="st2" d="M294.2,187.4c-1.3,8,2.6,16.9,3.4,24.9c1,10.4,1.3,22.5,1.1,32.4h3l0.5-27.8
	c0.3-3-0.1-16.9,6.6-12.5c10,6.5,9.8,19.9,14.6,30c1.7,3.6,3.7,6.7,7.6,8.1c11,3.8,38.8,2.5,50.7,0.5c3.3-0.8-1.6-4.2-2.5-4.9
	c-7.2-3-15.2-6.7-20.5-9.8c-1.1-0.6-1-0.6-2.2-0.1c-17.3,3.7-21.9-8.2-26.3-19.3c-5.2-13.3-12.2-26.6-21.3-37.6
	c-1.1-1.2-1.3-1.3-2.1-0.9C301.1,173.3,295.2,181.1,294.2,187.4z"/>
<g id="XMLID_12_">
	<path id="XMLID_23_" class="st3" d="M303.3,86.8h70.1c3.4,0,6.1,2.8,6.1,6.1v40.3c0,3.4-2.8,6.1-6.1,6.1h-70.1
		c-3.4,0-6.1-2.8-6.1-6.1V92.9C297.2,89.5,299.9,86.8,303.3,86.8z"/>
	<polygon id="XMLID_22_" class="st1" points="375.6,86.7 375.6,122.7 375.6,123.1 375.6,123.4 375.6,123.8 375.5,124.2 375.4,124.6 
		375.3,125 375.2,125.3 375.1,125.7 374.9,126 374.8,126.4 374.6,126.7 374.4,127 374.2,127.3 374,127.6 373.8,127.9 373.5,128.2 
		373.3,128.5 373,128.7 372.7,129 372.4,129.2 372.1,129.4 371.8,129.6 371.5,129.8 371.2,130 370.8,130.1 370.5,130.2 370.1,130.4 
		369.8,130.4 369.4,130.5 369,130.6 368.6,130.6 368.2,130.6 308.2,130.6 307.8,130.6 307.4,130.6 307,130.5 306.7,130.4 
		306.3,130.4 305.9,130.2 305.6,130.1 305.2,130 304.9,129.8 304.6,129.6 304.3,129.4 304,129.2 303.7,129 303.4,128.7 303.1,128.5 
		302.9,128.2 302.6,127.9 302.4,127.6 302.2,127.3 302,127 301.8,126.7 301.6,126.4 301.5,126 301.3,125.7 301.2,125.3 301.1,125 
		301,124.6 300.9,124.2 300.9,123.8 300.8,123.4 300.8,123.1 300.8,122.7 300.8,87.1 300.8,86.7 300.8,86.3 300.9,85.8 301.1,85.3 
		301.4,84.7 301.8,84.3 302.3,83.9 302.8,83.6 303.3,83.4 303.8,83.3 304.3,83.2 304.8,83.1 305.4,83 305.9,83 306.6,83 307.3,83 
		368.9,83 369.3,83 369.7,83 370,83 370.5,83.1 370.9,83.1 371.3,83.1 371.8,83.2 372.3,83.3 372.8,83.4 373.3,83.5 373.8,83.8 
		374.4,84.2 374.9,84.7 375.3,85.3 375.6,86.1 	"/>
	<path id="XMLID_21_" class="st4" d="M372.6,86.6v35c0,3.1-2.3,5.7-5.1,5.7h-58.6c-2.8,0-5.1-2.5-5.1-5.7c0-11.6,0-23.2,0-34.7
		c0-1.5,0.7-1.9,4.2-1.9h60.1C369.9,85.1,372.6,84.9,372.6,86.6z"/>
	<path id="XMLID_20_" class="st1" d="M334.6,124.8h7.3c1,0,1.8,0.8,1.8,1.8v7.7c0,1-0.8,1.8-1.8,1.8h-7.3c-1,0-1.8-0.8-1.8-1.8v-7.7
		C332.7,125.6,333.5,124.8,334.6,124.8z"/>
	<path id="XMLID_19_" class="st3" d="M338.2,40.8c13.4,0,24.4,17.9,25,40.4h-5.5c-0.6-19.8-9.1-35.6-19.5-35.6
		c-10.4,0-18.9,15.8-19.5,35.6h-5.5C313.8,58.7,324.8,40.8,338.2,40.8z"/>
	<path id="XMLID_16_" class="st3" d="M315.7,79.4c3.7,0,6.7,3,6.7,6.7c0,3.7-3,6.7-6.7,6.7c-3.7,0-6.7-3-6.7-6.7
		C309,82.4,312,79.4,315.7,79.4L315.7,79.4z M315.7,82.4c-2,0-3.7,1.7-3.7,3.7c0,2,1.7,3.7,3.7,3.7c2,0,3.7-1.7,3.7-3.7
		C319.4,84.1,317.8,82.4,315.7,82.4z"/>
	<path id="XMLID_13_" class="st3" d="M360.5,79.4c3.7,0,6.7,3,6.7,6.7c0,3.7-3,6.7-6.7,6.7c-3.7,0-6.7-3-6.7-6.7
		C353.8,82.4,356.8,79.4,360.5,79.4L360.5,79.4z M360.5,82.4c-2,0-3.7,1.7-3.7,3.7c0,2,1.7,3.7,3.7,3.7s3.7-1.7,3.7-3.7
		C364.2,84.1,362.5,82.4,360.5,82.4z"/>
</g>
<text id="XMLID_49_" transform="matrix(1 0 0 1 207.8573 161.8088)" class="st5 st6 st7">+</text>
</svg>
