<?xml version="1.0" encoding="utf-8"?>
<!-- Generator: Adobe Illustrator 19.0.0, SVG Export Plug-In . SVG Version: 6.00 Build 0)  -->
<svg version="1.1" xmlns="http://www.w3.org/2000/svg" xmlns:xlink="http://www.w3.org/1999/xlink" x="0px" y="0px"
	 viewBox="0 0 460 280" style="enable-background:new 0 0 460 280;" xml:space="preserve">
<style type="text/css">
	.st0{fill-rule:evenodd;clip-rule:evenodd;fill:#CCCCCC;}
	.st1{fill-rule:evenodd;clip-rule:evenodd;fill:none;stroke:#CCCCCC;stroke-width:2;stroke-miterlimit:10;}
	.st2{fill-rule:evenodd;clip-rule:evenodd;fill:#D61D37;}
	.st3{fill-rule:evenodd;clip-rule:evenodd;fill:#F4EE19;}
	.st4{fill-rule:evenodd;clip-rule:evenodd;fill:#0ABC0A;}
	.st5{fill-rule:evenodd;clip-rule:evenodd;fill:none;stroke:#CCCCCC;stroke-miterlimit:10;}
	.st6{fill-rule:evenodd;clip-rule:evenodd;fill:#E2E2E2;}
	.st7{fill-rule:evenodd;clip-rule:evenodd;fill:none;stroke:#F90321;stroke-width:4;stroke-miterlimit:10;}
	.st8{opacity:0.65;fill-rule:evenodd;clip-rule:evenodd;fill:#AEF4A8;}
	.st9{opacity:0.65;fill-rule:evenodd;clip-rule:evenodd;fill:#F2D3AA;}
	.st10{opacity:0.65;fill-rule:evenodd;clip-rule:evenodd;fill:#AAD6F2;}
	.st11{opacity:0.65;fill-rule:evenodd;clip-rule:evenodd;fill:#EFEFAB;}
</style>
<g id="Layer_2">
	<path id="XMLID_1_" class="st0" d="M25.1,32.2V18c0-3.1,2.6-5.7,5.7-5.7h395.7c3.1,0,5.7,2.6,5.7,5.7v14.2H25.1z"/>
	<path id="XMLID_2_" class="st1" d="M426.5,266.7H30.8c-3.1,0-5.7-2.6-5.7-5.7V18c0-3.1,2.6-5.7,5.7-5.7h395.7
		c3.1,0,5.7,2.6,5.7,5.7v243C432.2,264.2,429.7,266.7,426.5,266.7z"/>
	<g id="Layer_3">
		<g id="XMLID_6_">
			<circle id="XMLID_3_" class="st2" cx="36.8" cy="21.8" r="4.7"/>
			<circle id="XMLID_4_" class="st3" cx="51.8" cy="21.8" r="4.7"/>
			<circle id="XMLID_5_" class="st4" cx="66.8" cy="21.8" r="4.7"/>
		</g>
	</g>
	<g id="search_bar">
		<rect id="XMLID_7_" x="97.9" y="47.4" class="st5" width="191.2" height="12"/>
	</g>
	<g id="profile_image">
		<circle id="XMLID_10_" class="st5" cx="395.3" cy="53.4" r="15.7"/>
	</g>
	<g id="days">
		<rect id="XMLID_8_" x="33.2" y="78.2" class="st6" width="51.8" height="9.2"/>
		<rect id="XMLID_9_" x="89.9" y="78.2" class="st6" width="51.8" height="9.2"/>
		<rect id="XMLID_11_" x="146.6" y="78.2" class="st6" width="51.8" height="9.2"/>
		<rect id="XMLID_12_" x="203.3" y="78.2" class="st6" width="51.8" height="9.2"/>
		<rect id="XMLID_13_" x="260" y="78.2" class="st6" width="51.8" height="9.2"/>
		<rect id="XMLID_14_" x="316.7" y="78.2" class="st6" width="51.8" height="9.2"/>
		<rect id="XMLID_15_" x="373.4" y="78.2" class="st6" width="51.8" height="9.2"/>
	</g>
	<rect id="XMLID_22_" x="33.2" y="93.2" class="st5" width="51.8" height="163.2"/>
	<rect id="XMLID_21_" x="89.9" y="93.2" class="st5" width="51.8" height="163.2"/>
	<rect id="XMLID_20_" x="146.6" y="93.2" class="st5" width="51.8" height="163.2"/>
	<rect id="XMLID_19_" x="203.3" y="93.2" class="st5" width="51.8" height="163.2"/>
	<rect id="XMLID_18_" x="260" y="93.2" class="st5" width="51.8" height="163.2"/>
	<rect id="XMLID_36_" x="260" y="178.6" class="st7" width="51.8" height="50.8"/>
	<rect id="XMLID_17_" x="316.7" y="93.2" class="st5" width="51.8" height="163.2"/>
	<rect id="XMLID_16_" x="373.4" y="93.2" class="st5" width="51.8" height="163.2"/>
	<path id="XMLID_23_" class="st8" d="M75.7,141.9h-34c-3.3,0-6-2.7-6-6v-12c0-3.3,2.7-6,6-6h34c3.3,0,6,2.7,6,6v12
		C81.7,139.2,79,141.9,75.7,141.9z"/>
	<path id="XMLID_29_" class="st9" d="M71.5,216H45.8c-5.6,0-10.2-4.6-10.2-10.2v-48.7c0-5.6,4.6-10.2,10.2-10.2h25.6
		c5.6,0,10.2,4.6,10.2,10.2v48.7C81.7,211.4,77.1,216,71.5,216z"/>
	<path id="XMLID_24_" class="st10" d="M132.7,172.9h-34c-3.3,0-6-2.7-6-6v-12c0-3.3,2.7-6,6-6h34c3.3,0,6,2.7,6,6v12
		C138.7,170.2,136,172.9,132.7,172.9z"/>
	<path id="XMLID_25_" class="st8" d="M246,121.3h-34c-3.3,0-6-2.7-6-6v-12c0-3.3,2.7-6,6-6h34c3.3,0,6,2.7,6,6v12
		C252,118.6,249.3,121.3,246,121.3z"/>
	<path id="XMLID_26_" class="st11" d="M299,160.9h-26.7c-5.3,0-9.6-4.3-9.6-9.6v-42.7c0-5.3,4.3-9.6,9.6-9.6H299
		c5.3,0,9.6,4.3,9.6,9.6v42.7C308.7,156.6,304.3,160.9,299,160.9z"/>
	<path id="XMLID_27_" class="st8" d="M359.3,246.2h-34c-3.3,0-6-2.7-6-6v-12c0-3.3,2.7-6,6-6h34c3.3,0,6,2.7,6,6v12
		C365.3,243.5,362.6,246.2,359.3,246.2z"/>
	<path id="XMLID_35_" class="st8" d="M359.3,187.2h-34c-3.3,0-6-2.7-6-6v-12c0-3.3,2.7-6,6-6h34c3.3,0,6,2.7,6,6v12
		C365.3,184.5,362.6,187.2,359.3,187.2z"/>
	<path id="XMLID_28_" class="st8" d="M411.4,163.8h-26.2c-5.5,0-9.9-4.5-9.9-9.9v-45.8c0-5.5,4.5-9.9,9.9-9.9h26.2
		c5.5,0,9.9,4.5,9.9,9.9v45.8C421.3,159.3,416.9,163.8,411.4,163.8z"/>
	<path id="XMLID_30_" class="st9" d="M127.5,252h-25c-5.8,0-10.5-4.7-10.5-10.5v-52.3c0-5.8,4.7-10.5,10.5-10.5h25
		c5.8,0,10.5,4.7,10.5,10.5v52.3C138,247.3,133.3,252,127.5,252z"/>
	<path id="XMLID_31_" class="st9" d="M412.2,252.3h-26.4c-5.4,0-9.8-4.4-9.8-9.8v-44.6c0-5.4,4.4-9.8,9.8-9.8h26.4
		c5.4,0,9.8,4.4,9.8,9.8v44.6C422,247.9,417.6,252.3,412.2,252.3z"/>
	<path id="XMLID_32_" class="st8" d="M132.7,142.2h-34c-3.3,0-6-2.7-6-6v-12c0-3.3,2.7-6,6-6h34c3.3,0,6,2.7,6,6v12
		C138.7,139.5,136,142.2,132.7,142.2z"/>
	<path id="XMLID_33_" class="st11" d="M181.8,207.6h-20.3c-7.1,0-12.8-5.8-12.8-12.8v-84.3c0-7.1,5.8-12.8,12.8-12.8h20.3
		c7.1,0,12.8,5.8,12.8,12.8v84.3C194.7,201.8,188.9,207.6,181.8,207.6z"/>
	<path id="XMLID_34_" class="st10" d="M242.7,208.1h-27.4c-5.1,0-9.3-4.2-9.3-9.3v-39.3c0-5.1,4.2-9.3,9.3-9.3h27.4
		c5.1,0,9.3,4.2,9.3,9.3v39.3C252,203.9,247.8,208.1,242.7,208.1z"/>
</g>
<g id="Layer_6">
</g>
</svg>
