<svg id="Layer_2" data-name="Layer 2" xmlns="http://www.w3.org/2000/svg" viewBox="0 0 557.46 90.87"><defs><style>.cls-1,.cls-2{fill:#666766;}.cls-1{fill-rule:evenodd;}</style></defs><title>dorrbell-logo-beta-5f666e</title><path class="cls-1" d="M47.21,96.12a38.28,38.28,0,1,1,33-37.91A38.57,38.57,0,0,1,47.21,96.12ZM63,73.91A97.16,97.16,0,0,1,46.7,75.53a5.13,5.13,0,1,1-9.54,0,94.44,94.44,0,0,1-16.72-1.72c-3.08-.7-4.89-1.55-4.89-2.47s1.6-1.85,4.36-2.51q0-.94,0-1.89c0-14.32,7.3-26.19,17.07-29.15a5.13,5.13,0,0,1,10,.14c9.54,3.19,16.61,14.92,16.61,29q0,0.9,0,1.79c3,0.68,4.78,1.55,4.78,2.61S66.32,73.2,63,73.91Z" transform="translate(-3.66 -5.61)"/><path class="cls-2" d="M137.49,5.61H151V85.47a44.72,44.72,0,0,1-23.25,6.41c-14.88,0-29.14-9.4-29.14-27.28C98.65,47.76,110.12,36,126.34,36a20.72,20.72,0,0,1,11.16,3.1V5.61Zm0,45.67c-2.38-2.48-6.82-4-10.75-4-8.47,0-13.84,7.13-13.84,17.36,0,9.82,6.92,16.22,14.88,16.22,2.89,0,6.72-.41,9.71-2.27V51.28Z" transform="translate(-3.66 -5.61)"/><path class="cls-2" d="M189.56,91.88c-16.12,0-28.62-12.29-28.62-27.79S173.44,36,189.87,36a28,28,0,0,1,28.31,28.1C218.18,79.38,205.58,91.88,189.56,91.88Zm14.36-27.79c0-10-6.41-17.15-14.05-17.15-8.47,0-14.77,7.13-14.77,17.46,0,9.81,6.92,16.94,14.36,16.94C198.14,81.34,203.92,74.42,203.92,64.09Z" transform="translate(-3.66 -5.61)"/><path class="cls-2" d="M228.2,90.33V37.53h13.43V45.9c1.24-2.69,5.37-9.82,11.57-9.82a17.16,17.16,0,0,1,9.51,2.58l-4.65,12.71a12.26,12.26,0,0,0-7.23-2.69c-6,0-9.19,7.23-9.19,12.5V90.33H228.2Z" transform="translate(-3.66 -5.61)"/><path class="cls-2" d="M269.62,90.33V37.53h13.43V45.9c1.24-2.69,5.37-9.82,11.57-9.82a17.16,17.16,0,0,1,9.5,2.58l-4.65,12.71a12.25,12.25,0,0,0-7.23-2.69c-6,0-9.2,7.23-9.2,12.5V90.33H269.62Z" transform="translate(-3.66 -5.61)"/><path class="cls-2" d="M310.94,5.61h13.64V40.12A31,31,0,0,1,338.43,36c17.36,0,25,13.53,25,27.59,0,18.49-14.36,28.31-29.34,28.31-7.44,0-16.12-1.65-23.14-6.41V5.61Zm13.64,72.94c2.17,1.24,4.75,2.07,9.5,2.07,9.09,0,15.08-6.3,15.08-17.15,0-8.37-4.44-16.32-13-16.32-3.93,0-9.09,2-11.57,4.34V78.55Z" transform="translate(-3.66 -5.61)"/><path class="cls-2" d="M422.63,85.37c-2.79,2.38-10.85,6.51-22.63,6.51-17.46,0-29.24-10.85-29.24-27.79C370.76,48,382.54,36,399,36c17.15,0,25.62,13,25.62,27.9V69H384.4c1.45,9.81,10.33,12.09,18.6,12.09,8.06,0,13.74-3.31,15.7-5.17ZM411.05,58.92c-0.1-6.72-4.65-12.4-12-12.4-7.75,0-13.12,4.65-14.67,12.4h26.66Z" transform="translate(-3.66 -5.61)"/><path class="cls-2" d="M434.4,90.33V5.61h13.54V90.33H434.4Z" transform="translate(-3.66 -5.61)"/><path class="cls-2" d="M460.95,90.33V5.61h13.54V90.33H460.95Z" transform="translate(-3.66 -5.61)"/><path class="cls-2" d="M498,8h3.57v8.53a6.49,6.49,0,0,1,5.27-2.69c4.22,0,7.28,3.33,7.28,8.63s-3.09,8.6-7.28,8.6a6.6,6.6,0,0,1-5.27-2.65v2.24H498V8ZM505.76,28c2.86,0,4.66-2.24,4.66-5.44s-1.8-5.47-4.66-5.47a5.36,5.36,0,0,0-4.21,2.24v6.49A5.3,5.3,0,0,0,505.76,28Z" transform="translate(-3.66 -5.61)"/><path class="cls-2" d="M525,13.89c4.93,0,8.09,3.77,8.09,8.94v0.85H520.45a5,5,0,0,0,5.24,4.52,7,7,0,0,0,4.66-1.8L532,28.75a9.57,9.57,0,0,1-6.66,2.38,8.25,8.25,0,0,1-8.6-8.64A8.3,8.3,0,0,1,525,13.89Zm-4.62,7.27h9.25A4.39,4.39,0,0,0,525,16.82,4.53,4.53,0,0,0,520.42,21.17Z" transform="translate(-3.66 -5.61)"/><path class="cls-2" d="M537.38,26.91V17.43h-2.72V14.3h2.72V9.81H541V14.3h3.33v3.13H541V26c0,1.12.54,1.94,1.56,1.94a2.3,2.3,0,0,0,1.6-.58L545,30.07a4.71,4.71,0,0,1-3.37,1.05C538.85,31.13,537.38,29.63,537.38,26.91Z" transform="translate(-3.66 -5.61)"/><path class="cls-2" d="M557.54,29a6.93,6.93,0,0,1-5.3,2.18,5.45,5.45,0,0,1-5.71-5.44c0-3.77,3-5.34,5.71-5.34a6.79,6.79,0,0,1,5.3,2.11V20c0-1.9-1.56-3.06-3.84-3.06A6.72,6.72,0,0,0,548.84,19l-1.46-2.48a9.76,9.76,0,0,1,6.9-2.65c3.64,0,6.83,1.53,6.83,5.95V30.72h-3.57V29Zm0-4.45a4.81,4.81,0,0,0-3.91-1.7c-2,0-3.5,1.16-3.5,3s1.5,2.92,3.5,2.92a4.81,4.81,0,0,0,3.91-1.7V24.5Z" transform="translate(-3.66 -5.61)"/></svg>