<svg id="Choose" xmlns="http://www.w3.org/2000/svg" viewBox="0 0 174 174"><defs><style>.cls-1,.cls-3{fill:none;stroke:#666;stroke-miterlimit:10;stroke-width:2px;}.cls-1,.cls-2{fill-rule:evenodd;}.cls-2{fill:#666;}</style></defs><title>how-img-choose</title><g id="Layer_1" data-name="Layer 1"><path class="cls-1" d="M57,37.11h0l4.85-1.44a15.69,15.69,0,0,0,9.22,3.73,14.52,14.52,0,0,0,9.4-3.73l4.85,1.44" transform="translate(-0.5 0.8)"/><path class="cls-1" d="M57.74,36.88l-4.09.95c-3.36-.49-5.21,5.84-6.14,8.95l8.3,4.17c0,3.64-.37,7.56,2.87,11.44,1.56,4.78,2.33,8.38,1.78,13.12C52,94.58,46.7,114.87,39,133.92a37.53,37.53,0,0,0,11.73,2.37L50.56,138c14.86,2.08,26,2.35,41.4,0l-0.2-1.69a37.53,37.53,0,0,0,11.73-2.37c-7.67-19.06-12.86-39.34-21.35-58.42a38.94,38.94,0,0,1,1.7-13.12c3.3-3.94,3.15-8.28,2.87-11.44L95,46.77c-0.93-3.1-2.78-9.43-6.14-8.95l-4.09-.95" transform="translate(-0.5 0.8)"/><path class="cls-2" d="M60.84,75.44c6.69,2.29,13.87,1.86,21,.33C79.72,79.52,64.19,80.92,60.84,75.44Z" transform="translate(-0.5 0.8)"/></g><rect class="cls-3" x="101.44" y="64.3" width="34.99" height="22.3" rx="2.61" ry="2.61"/><path class="cls-2" d="M119.36,46.2c5.69,0,10.34,7.59,10.62,17.13h-2.35c-0.25-8.42-3.86-15.11-8.28-15.11s-8,6.69-8.28,15.11h-2.35C109,53.79,113.66,46.2,119.36,46.2Z" transform="translate(-0.5 0.8)"/><path class="cls-1" d="M110.81,100.44c-0.45,2.85.94,6,1.21,8.91a105.84,105.84,0,0,1,.4,11.57h1.06l0.18-9.93c0.09-1.09,0-6,2.37-4.46,3.57,2.33,3.49,7.12,5.21,10.72a4.9,4.9,0,0,0,2.73,2.88c3.93,1.37,13.87.89,18.13,0.17,1.17-.3-0.57-1.52-0.89-1.74a66.69,66.69,0,0,1-7.31-3.51,0.59,0.59,0,0,0-.77-0.05c-6.19,1.31-7.82-2.95-9.39-6.88a49.45,49.45,0,0,0-7.6-13.44c-0.4-.42-0.47-0.47-0.75-0.33A9.57,9.57,0,0,0,110.81,100.44Z" transform="translate(-0.5 0.8)"/><circle class="cls-3" cx="87" cy="87" r="86"/></svg>