<svg id="Layer_1" data-name="Layer 1" xmlns="http://www.w3.org/2000/svg" xmlns:xlink="http://www.w3.org/1999/xlink" viewBox="0 0 80 80"><defs><style>.cls-1{fill:none;}.cls-2{fill:#666;}.cls-3{clip-path:url(#clip-path);}</style><clipPath id="clip-path"><rect class="cls-1" x="20" y="20" width="40" height="40"/></clipPath></defs><title>icon-instagram-gray</title><g id="circle"><path id="_Compound_Path_" data-name="&lt;Compound Path&gt;" class="cls-2" d="M40,0A40,40,0,1,0,80,40,40,40,0,0,0,40,0Zm0,76A36,36,0,1,1,76,40,36,36,0,0,1,40,76Z"/></g><g id="insta"><g id="_Group_" data-name="&lt;Group&gt;"><g id="_Group_2" data-name="&lt;Group&gt;"><g class="cls-3"><path id="_Compound_Path_2" data-name="&lt;Compound Path&gt;" class="cls-2" d="M55,20H25a5,5,0,0,0-5,5V55a5,5,0,0,0,5,5H55a5,5,0,0,0,5-5V25a5,5,0,0,0-5-5h0ZM40,34.1A5.9,5.9,0,1,1,34.1,40,6,6,0,0,1,40,34.1h0ZM55.4,52.8a2.65,2.65,0,0,1-2.7,2.5H27.4a2.75,2.75,0,0,1-2.8-2.5V40.2a2.75,2.75,0,0,1,2.8-2.5h1.4a0.91,0.91,0,0,1,.7.3,0.66,0.66,0,0,1,.2.7,5.28,5.28,0,0,0-.1,1.3,10.3,10.3,0,0,0,20.6,0,5.7,5.7,0,0,0-.1-1.3,0.84,0.84,0,0,1,.2-0.7,0.91,0.91,0,0,1,.7-0.3h1.5a2.65,2.65,0,0,1,2.7,2.5V52.8h0.2Zm0-23.3h0A2.48,2.48,0,0,1,52.9,32H50.5A2.48,2.48,0,0,1,48,29.5V27.1a2.48,2.48,0,0,1,2.5-2.5h2.4a2.48,2.48,0,0,1,2.5,2.5v2.4Z"/></g></g></g></g></svg>