<svg id="Layer_1" data-name="Layer 1" xmlns="http://www.w3.org/2000/svg" viewBox="0 0 86.02 96.95"><defs><style>.cls-1{fill:none;stroke:#fff;stroke-miterlimit:10;stroke-width:4px;}</style></defs><title>icon-gift</title><polyline class="cls-1" points="34.52 44.71 2 44.71 2 27.06 84.02 27.06 84.02 44.71 51.49 44.71"/><polyline class="cls-1" points="51.49 44.71 76.55 44.71 76.55 94.95 9.47 94.95 9.47 44.71 34.52 44.71"/><g id="Layer_2" data-name="Layer 2"><rect class="cls-1" x="34.52" y="27.06" width="16.97" height="67.9"/></g><path class="cls-1" d="M49.71,27.29c-7.43-15.13-21.38-32-29.52-20L20,7.5c-8.14,12,12.7,18.71,29.5,20Z" transform="translate(-6.91 -1.19)"/><path class="cls-1" d="M50.24,27.29c7.43-15.13,21.38-32,29.52-20L79.92,7.5c8.14,12-12.7,18.71-29.5,20Z" transform="translate(-6.91 -1.19)"/></svg>