<svg id="Layer_1" data-name="Layer 1" xmlns="http://www.w3.org/2000/svg" xmlns:xlink="http://www.w3.org/1999/xlink" viewBox="0 0 80 80"><defs><style>.cls-1{fill:none;}.cls-2{fill:#666;}.cls-3{clip-path:url(#clip-path);}</style><clipPath id="clip-path"><rect class="cls-1" x="16.7" y="12.5" width="46.7" height="55"/></clipPath></defs><title>icon-pinterest-gray</title><g id="circle"><path id="_Compound_Path_" data-name="&lt;Compound Path&gt;" class="cls-2" d="M40,0A40,40,0,1,0,80,40,40,40,0,0,0,40,0Zm0,76A36,36,0,1,1,76,40,36,36,0,0,1,40,76Z"/></g><g id="pint"><g id="_Group_" data-name="&lt;Group&gt;"><g id="_Group_2" data-name="&lt;Group&gt;"><g class="cls-3"><path id="_Path_" data-name="&lt;Path&gt;" class="cls-2" d="M28.2,14.9c-6,2.8-10.1,8.2-11.2,15.5a26.85,26.85,0,0,0,1.2,13.5,13,13,0,0,0,1.4,2.6c0.3,0.4.5,0.8,0.8,1.2a10.93,10.93,0,0,0,1.5-.8c2-1.4,3.5-3.4,5.3-5.2-5.8-7.9.3-17.8,8-20,7.2-2,16.9,1.5,19.1,10.2,0.9,3.6.3,7.6-2.2,10.2a8.53,8.53,0,0,1-4.7,2.6,10.75,10.75,0,0,1-3.1.1l-1.7-.3c-1-.3-1.8-0.2-1.8-1.4V28.8c0-1,.1-0.8-0.6-0.9-0.5-.1-1.1-0.1-1.6-0.2a18.81,18.81,0,0,0-5.8.1c-0.7.1-.7,0-0.7,0.9v7.5c0,5.3.3,10.7,0.2,16-0.1,1.6-.1,5.4-1.6,6.2-1.7.9-3.3-1-4.9-1.4,0.2,2.7-1.2,7.9,1.4,9.3a9.47,9.47,0,0,0,7.7.7c5.3-2.1,7.1-9.1,6.4-14.9,8.2,2.9,17.1-2,20.6-10.7a21.28,21.28,0,0,0-2.3-19.3c-7-9.9-21.4-11.8-31.4-7.2h0Z"/></g></g></g></g></svg>