<?xml version="1.0" encoding="utf-8"?>
<!-- Generator: Adobe Illustrator 19.2.0, SVG Export Plug-In . SVG Version: 6.00 Build 0)  -->
<svg version="1.1" xmlns="http://www.w3.org/2000/svg" xmlns:xlink="http://www.w3.org/1999/xlink" x="0px" y="0px"
	 viewBox="0 0 562.7 96.7" style="enable-background:new 0 0 562.7 96.7;" xml:space="preserve">
<style type="text/css">
	.st0{fill-rule:evenodd;clip-rule:evenodd;}
</style>
<g id="Layer_2">
	<g>
		<g id="XMLID_2_">
			<path class="st0" d="M46.5,93.5c-1.7,0.2-3.5,0.4-5.3,0.4c-2,0-4-0.2-6-0.5C17,90.5,3,74.6,3,55.5c0-21.1,17.1-38.3,38.3-38.3
				s38.3,17.1,38.3,38.3C79.5,74.9,65.2,90.9,46.5,93.5z M62.3,71.2c-3.9,0.8-9.7,1.4-16.3,1.6c0.2,0.6,0.4,1.2,0.4,1.9
				c0,2.8-2.3,5.1-5.1,5.1c-2.8,0-5.1-2.3-5.1-5.1c0-0.7,0.1-1.3,0.4-1.9c-6.9-0.2-12.8-0.8-16.7-1.7c-3.1-0.7-4.9-1.6-4.9-2.5
				c0-1,1.6-1.8,4.4-2.5c0-0.6,0-1.3,0-1.9c0-14.3,7.3-26.2,17.1-29.2c0.5-2.3,2.6-3.9,5-3.9c2.5,0,4.5,1.7,5,4.1
				c9.5,3.2,16.6,14.9,16.6,29c0,0.6,0,1.2,0,1.8c3,0.7,4.8,1.6,4.8,2.6C67.6,69.6,65.7,70.5,62.3,71.2z"/>
		</g>
	</g>
	<g>
		<path d="M136.8,2.9h13.5v79.9c-7.4,4.5-15.7,6.4-23.2,6.4c-14.9,0-29.1-9.4-29.1-27.3c0-16.8,11.5-28.6,27.7-28.6
			c3.7,0,7.9,0.9,11.2,3.1V2.9z M136.8,48.6c-2.4-2.5-6.8-4-10.7-4c-8.5,0-13.8,7.1-13.8,17.4c0,9.8,6.9,16.2,14.9,16.2
			c2.9,0,6.7-0.4,9.7-2.3V48.6z"/>
		<path d="M188.9,89.2c-16.1,0-28.6-12.3-28.6-27.8c0-15.6,12.5-28.1,28.9-28.1c16.1,0,28.3,12.8,28.3,28.1S204.9,89.2,188.9,89.2z
			 M203.3,61.4c0-10-6.4-17.2-14.1-17.2c-8.5,0-14.8,7.1-14.8,17.5c0,9.8,6.9,16.9,14.4,16.9C197.5,78.7,203.3,71.8,203.3,61.4z"/>
		<path d="M227.5,87.7V34.9H241v8.4c1.2-2.7,5.4-9.8,11.6-9.8c4.8,0,7.3,1.3,9.5,2.6l-4.6,12.7c-1.7-1.1-3.9-2.7-7.2-2.7
			c-6,0-9.2,7.2-9.2,12.5v29.1H227.5z"/>
		<path d="M269,87.7V34.9h13.4v8.4c1.2-2.7,5.4-9.8,11.6-9.8c4.8,0,7.3,1.3,9.5,2.6l-4.6,12.7c-1.7-1.1-3.9-2.7-7.2-2.7
			c-6,0-9.2,7.2-9.2,12.5v29.1H269z"/>
		<path d="M310.3,2.9h13.6v34.5c3.2-2.1,9.6-4.1,13.8-4.1c17.4,0,25,13.5,25,27.6c0,18.5-14.4,28.3-29.3,28.3
			c-7.4,0-16.1-1.7-23.1-6.4V2.9z M323.9,75.9c2.2,1.2,4.8,2.1,9.5,2.1c9.1,0,15.1-6.3,15.1-17.2c0-8.4-4.4-16.3-13-16.3
			c-3.9,0-9.1,2-11.6,4.3V75.9z"/>
		<path d="M422,82.7c-2.8,2.4-10.8,6.5-22.6,6.5c-17.5,0-29.2-10.8-29.2-27.8c0-16.1,11.8-28.1,28.2-28.1c17.2,0,25.6,13,25.6,27.9
			v5.2h-40.2c1.4,9.8,10.3,12.1,18.6,12.1c8.1,0,13.7-3.3,15.7-5.2L422,82.7z M410.4,56.3c-0.1-6.7-4.6-12.4-12-12.4
			c-7.7,0-13.1,4.6-14.7,12.4H410.4z"/>
		<path d="M433.7,87.7V2.9h13.5v84.7H433.7z"/>
		<path d="M460.3,87.7V2.9h13.5v84.7H460.3z"/>
	</g>
</g>
<g id="Layer_3">
	<g>
		<path d="M497.5,5.4h2.5v8.7c1.3-1.8,3.3-2.9,5.5-2.9c4.3,0,7.3,3.4,7.3,8.6c0,5.3-3,8.6-7.3,8.6c-2.3,0-4.3-1.2-5.5-2.9v2.4h-2.5
			V5.4z M505,26.2c3.3,0,5.3-2.7,5.3-6.3s-2-6.4-5.3-6.4c-2,0-4,1.2-4.9,2.7v7.4C501,25,503,26.2,505,26.2z"/>
		<path d="M524.2,11.2c5,0,7.9,3.9,7.9,8.8v0.6h-13.3c0.2,3.1,2.4,5.7,5.9,5.7c1.9,0,3.8-0.7,5.1-2.1l1.2,1.7
			c-1.6,1.6-3.8,2.5-6.5,2.5c-4.9,0-8.4-3.5-8.4-8.6C516.1,15.1,519.5,11.2,524.2,11.2z M518.8,18.8h10.8c0-2.4-1.7-5.5-5.4-5.5
			C520.7,13.3,519,16.3,518.8,18.8z"/>
		<path d="M536.8,24.6V13.9H534v-2.2h2.7V7.1h2.5v4.5h3.3v2.2h-3.3v10.2c0,1.2,0.5,2.1,1.7,2.1c0.7,0,1.4-0.3,1.7-0.7l0.7,1.9
			c-0.6,0.6-1.6,1.1-3.1,1.1C538,28.5,536.8,27.1,536.8,24.6z"/>
		<path d="M556.5,26.2c-1.4,1.5-3.2,2.3-5.4,2.3c-2.8,0-5.7-1.9-5.7-5.4c0-3.7,3-5.4,5.7-5.4c2.2,0,4.1,0.7,5.4,2.2v-3
			c0-2.2-1.8-3.5-4.1-3.5c-2,0-3.6,0.7-5,2.3l-1.2-1.8c1.8-1.8,3.9-2.7,6.6-2.7c3.5,0,6.4,1.6,6.4,5.5v11.3h-2.5V26.2z M556.5,21.5
			c-1-1.4-2.7-2-4.5-2c-2.4,0-4,1.5-4,3.6c0,2.1,1.7,3.6,4,3.6c1.8,0,3.5-0.7,4.5-2V21.5z"/>
	</g>
</g>
</svg>
