<svg id="Layer_1" data-name="Layer 1" xmlns="http://www.w3.org/2000/svg" xmlns:xlink="http://www.w3.org/1999/xlink" viewBox="0 0 58.22 19.61"><defs><style>.cls-1{fill:none;}.cls-2{clip-path:url(#clip-path);}.cls-3{fill:#666766;}</style><clipPath id="clip-path" transform="translate(-1.88 -1.92)"><rect class="cls-1" x="1.88" y="1.92" width="59.03" height="20.5"/></clipPath></defs><title>ornament</title><g class="cls-2"><path class="cls-3" d="M58.2,5.83a6.74,6.74,0,0,0-5.09-2.24h0c-4,0-6.32,2.44-8.34,5.16a2,2,0,0,1-2.59.71,1.46,1.46,0,0,1-.56-2,1.08,1.08,0,0,1,1.47-.41,0.82,0.82,0,0,1,.38.47,0.76,0.76,0,0,1-.07.59,0.54,0.54,0,0,1-.31.25,0.53,0.53,0,0,0-1,.18s0,0,0,.07a0.37,0.37,0,0,0,.17.43,1.39,1.39,0,0,0,1.87-.52,1.6,1.6,0,0,0,.14-1.23,1.57,1.57,0,0,0-.76-1,1.91,1.91,0,0,0-2.6.73,2.29,2.29,0,0,0,.87,3.11,2.68,2.68,0,0,0,1.31.36,2,2,0,0,0,.43-0.06c-0.42.58-.83,1.16-1.25,1.7a31,31,0,0,1-2.55,2.95,0.41,0.41,0,0,0-.26.1c-1.64,1.54-3.35,1.74-4.81.58a2.64,2.64,0,0,1-.42-3.7,2,2,0,0,1,2.85-.33,1.55,1.55,0,0,1,.57,1,1.49,1.49,0,0,1-.33,1.13,1.11,1.11,0,0,1-.69.41A1,1,0,0,0,36.66,14a0.87,0.87,0,0,0-1.75,0,0.75,0.75,0,0,0,.13.42,0.37,0.37,0,0,0,.14.31,2,2,0,0,0,1.44.41,1.92,1.92,0,0,0,1.32-.73,2.36,2.36,0,0,0-.37-3.32,2.86,2.86,0,0,0-4,.46,3.48,3.48,0,0,0,.51,4.82A4.32,4.32,0,0,1,32.45,15a4.56,4.56,0,0,1-.77-3.44,3.48,3.48,0,0,1,4.05-2.82A0.41,0.41,0,1,0,35.88,8a4.28,4.28,0,0,0-4.48,2.1V8.58a3.34,3.34,0,0,0,3-3.31,3.38,3.38,0,0,0-1-2.37,3.35,3.35,0,1,0-2.83,5.68v1.49A4.3,4.3,0,0,0,26.1,8a0.41,0.41,0,0,0-.33.48,0.42,0.42,0,0,0,.47.33,3.51,3.51,0,0,1,4.06,2.82A4.52,4.52,0,0,1,29.52,15a4.33,4.33,0,0,1-1.63,1.36,3.46,3.46,0,0,0,.51-4.82,2.85,2.85,0,0,0-4-.45A2.34,2.34,0,0,0,24,14.44a2,2,0,0,0,2.77.32,0.43,0.43,0,0,0,.15-0.31A0.79,0.79,0,0,0,27.06,14a0.87,0.87,0,0,0-1.74,0,1,1,0,0,0,.06.31,1.13,1.13,0,0,1-.71-0.4,1.55,1.55,0,0,1,.25-2.16,2,2,0,0,1,2.85.32,2.64,2.64,0,0,1-.42,3.7c-1.46,1.16-3.17,1-4.81-.58a0.43,0.43,0,0,0-.25-0.1,29.81,29.81,0,0,1-2.55-2.95c-0.43-.54-0.84-1.11-1.26-1.69a2.57,2.57,0,0,0,.43.06,2.68,2.68,0,0,0,1.3-.36,2.29,2.29,0,0,0,.87-3.11,1.91,1.91,0,0,0-2.59-.72,1.58,1.58,0,0,0-.76,1,1.64,1.64,0,0,0,.15,1.23,1.39,1.39,0,0,0,1.87.52,0.39,0.39,0,0,0,.17-0.43,0.36,0.36,0,0,0,0-.07,0.53,0.53,0,0,0-.45-0.61,0.51,0.51,0,0,0-.59.43,0.51,0.51,0,0,1-.31-0.24,0.79,0.79,0,0,1-.07-0.6,0.78,0.78,0,0,1,.37-0.47,1.1,1.1,0,0,1,1.48.41,1.46,1.46,0,0,1-.56,2,2,2,0,0,1-2.58-.69c-2-2.72-4.32-5.17-8.35-5.17h0A6.76,6.76,0,0,0,3.77,5.83,7.93,7.93,0,0,0,1.93,12,6.55,6.55,0,0,0,8.42,17.8h0.3l0.42,0a5.33,5.33,0,0,0,4.71-5.86A4.34,4.34,0,0,0,9.07,8.07a0.41,0.41,0,0,0-.36.46,0.4,0.4,0,0,0,.45.36A3.51,3.51,0,0,1,13,12a4.46,4.46,0,0,1-1.4,3.76,4.6,4.6,0,0,0,.31-2.95,3.45,3.45,0,0,0-4.1-2.66,2.85,2.85,0,0,0-2.19,3.37,2.36,2.36,0,0,0,2.79,1.82,2,2,0,0,0,1.25-.86A1.94,1.94,0,0,0,10,13.3s0,0,0,0a0.22,0.22,0,0,0,0-.06A1.39,1.39,0,0,0,10,13s0,0,0-.07a0.87,0.87,0,0,0-1.68.31,0.86,0.86,0,0,0,.71.85,1.15,1.15,0,0,1-.66.44,1.53,1.53,0,0,1-1.16-.22,1.49,1.49,0,0,1-.66-1A2,2,0,0,1,8,10.94a2.6,2.6,0,0,1,2,.37A2.66,2.66,0,0,1,11.15,13a3.64,3.64,0,0,1-.47,2.83,2.94,2.94,0,0,1-2,1.14,5.68,5.68,0,0,1-6-5.07,7.1,7.1,0,0,1,1.63-5.5,6,6,0,0,1,4.47-2h0c3.59,0,5.74,2.23,7.62,4.75v0a0.08,0.08,0,0,1,0,0c0.34,0.46.67,0.91,1,1.38l0.26,0.35a2.5,2.5,0,0,0-1.91.42,2.27,2.27,0,0,0-.64,3.15,1.91,1.91,0,0,0,1.59.85,1.87,1.87,0,0,0,1-.32,1.59,1.59,0,0,0,.69-1,1.55,1.55,0,0,0-.24-1.2,1.36,1.36,0,0,0-1.89-.38,0.37,0.37,0,0,0-.15.37,0.32,0.32,0,0,0-.06.1,0.53,0.53,0,0,0,.49.58,0.52,0.52,0,0,0,.55-0.44,0.52,0.52,0,0,1,.38.22,0.78,0.78,0,0,1-.22,1.08,1.08,1.08,0,0,1-1.5-.3,1.46,1.46,0,0,1,.41-2,2,2,0,0,1,2.7.58h0l0,0c2.32,2.92,4.31,5.44,7.74,4.93a5.08,5.08,0,0,0,3.37-2.08,6.43,6.43,0,0,0,.38-0.66v3.36a0.68,0.68,0,0,0-.18.15l-1,1.51a0.41,0.41,0,0,0,0,.42,0.42,0.42,0,0,0,.36.22h0.35a0.52,0.52,0,0,1,0,.06,0.94,0.94,0,1,0,1.87,0,0.58,0.58,0,0,1,0-.06h0.46a0.41,0.41,0,0,0,.41-0.41,0.41,0.41,0,0,0-.15-0.32l-1-1.42a0.78,0.78,0,0,0-.26-0.24V14.83a5.88,5.88,0,0,0,.39.69,5,5,0,0,0,3.37,2.08c3.41,0.53,5.41-2,7.74-4.93a0.08,0.08,0,0,0,0,0h0a2,2,0,0,1,2.7-.58,1.46,1.46,0,0,1,.42,2,1.08,1.08,0,0,1-1.5.3,0.75,0.75,0,0,1-.34-0.5,0.78,0.78,0,0,1,.11-0.58A0.57,0.57,0,0,1,44.66,13h0a0.52,0.52,0,0,0,.55.44,0.53,0.53,0,0,0,.49-0.58,0.36,0.36,0,0,0-.06-0.11,0.36,0.36,0,0,0-.15-0.36,1.36,1.36,0,0,0-1-.21,1.35,1.35,0,0,0-.86.59A1.59,1.59,0,0,0,43.4,14a1.64,1.64,0,0,0,.68,1,2,2,0,0,0,1.06.31,1.9,1.9,0,0,0,1.59-.85,2.28,2.28,0,0,0-.64-3.15,2.58,2.58,0,0,0-1.92-.42l0.26-.35c0.33-.47.66-0.92,1-1.38l0,0v0c1.88-2.51,4-4.75,7.62-4.75h0a5.94,5.94,0,0,1,4.48,2,7.06,7.06,0,0,1,1.63,5.5,5.68,5.68,0,0,1-2.1,3.84A5.62,5.62,0,0,1,53.27,17a2.93,2.93,0,0,1-2-1.14A3.65,3.65,0,0,1,50.84,13a2.64,2.64,0,0,1,3.12-2,2,2,0,0,1,1.28.88,2,2,0,0,1,.28,1.52,1.54,1.54,0,0,1-1.82,1.19A1.22,1.22,0,0,1,53,14.09a0.86,0.86,0,0,0-.17-1.71,0.84,0.84,0,0,0-.79.54A0.27,0.27,0,0,0,52,13a1.6,1.6,0,0,0,0,.2s0,0,0,.06,0,0,0,0a1.87,1.87,0,0,0,.28,1.17,2,2,0,0,0,1.25.86A2.33,2.33,0,0,0,55.31,15a2.29,2.29,0,0,0,1-1.48,2.78,2.78,0,0,0-.39-2.14,2.84,2.84,0,0,0-1.8-1.23A3.45,3.45,0,0,0,50,12.79a4.64,4.64,0,0,0,.31,3,4.69,4.69,0,0,1-.45-0.46,4.49,4.49,0,0,1-1-3.3,3.51,3.51,0,0,1,3.87-3.11,0.4,0.4,0,0,0,.46-0.36,0.42,0.42,0,0,0-.37-0.46,4.33,4.33,0,0,0-4.77,3.84,5.31,5.31,0,0,0,4.7,5.85l0.43,0h0.3A6.53,6.53,0,0,0,60,12,7.91,7.91,0,0,0,58.2,5.83h0ZM31.39,7.59V2.93a3.51,3.51,0,0,1,.68,2.33,3.54,3.54,0,0,1-.68,2.32h0ZM30.56,3.06v4.4A3.64,3.64,0,0,1,30,5.27a3.66,3.66,0,0,1,.59-2.2h0Zm3,2.2a2.5,2.5,0,0,1-1,2,5.25,5.25,0,0,0,.37-2,5.25,5.25,0,0,0-.37-2,2.5,2.5,0,0,1,1,2h0Zm-5.06,0a2.53,2.53,0,0,1,1-2,5.49,5.49,0,0,0-.36,2,5.3,5.3,0,0,0,.37,2,2.51,2.51,0,0,1-1-2h0Zm0,0" transform="translate(-1.88 -1.92)"/></g></svg>